<?xml version="1.0" standalone="no"?>
<!DOCTYPE svg PUBLIC "-//W3C//DTD SVG 20010904//EN"
 "http://www.w3.org/TR/2001/REC-SVG-20010904/DTD/svg10.dtd">
<svg version="1.0" xmlns="http://www.w3.org/2000/svg"
 width="800.000000pt" height="800.000000pt" viewBox="0 0 800.000000 800.000000"
 preserveAspectRatio="xMidYMid meet">

<g transform="translate(0.000000,800.000000) scale(0.100000,-0.100000)"
fill="#000000" stroke="none">
<path d="M3755 7893 c-600 -40 -1190 -218 -1711 -519 -489 -282 -953 -715
-1273 -1189 -839 -1241 -895 -2840 -145 -4141 161 -281 374 -555 618 -799 383
-382 809 -664 1301 -863 946 -381 2022 -374 2959 19 1215 510 2092 1598 2330
2889 48 263 60 404 60 710 0 306 -12 447 -60 710 -117 637 -388 1226 -800
1740 -139 173 -412 446 -584 584 -636 507 -1362 794 -2169 856 -124 9 -407 11
-526 3z m435 -104 c736 -75 1361 -569 1603 -1265 288 -830 -26 -1739 -768
-2224 -287 -187 -673 -300 -1026 -300 -873 0 -1637 -603 -1845 -1455 -159
-653 46 -1352 533 -1816 293 -278 633 -444 1053 -512 70 -12 -60 -5 -180 9
-987 113 -1903 621 -2525 1399 -449 561 -723 1218 -811 1945 -22 181 -25 647
-6 820 62 541 224 1044 478 1486 560 977 1497 1647 2599 1858 295 56 664 79
895 55z m-75 -5204 c98 -25 165 -64 236 -134 78 -78 123 -164 141 -269 53
-312 -209 -603 -522 -579 -297 23 -505 278 -462 567 42 292 328 486 607 415z"/>
<path d="M3883 6386 c-137 -34 -272 -142 -331 -267 -93 -195 -55 -418 97 -570
199 -199 503 -199 702 0 198 198 198 504 0 702 -125 125 -300 175 -468 135z"/>
</g>
</svg>
